<svg xmlns="http://www.w3.org/2000/svg" viewBox="0 0 160 160" width="160" height="160"><defs><linearGradient id="bobo2b" x1="0" y1="0" x2="0" y2="1"><stop offset="0" stop-color="#A9CCFF"/><stop offset=".5" stop-color="#4C8DFF"/><stop offset="1" stop-color="#2F5FD6"/></linearGradient><linearGradient id="bobo2m" x1="0" y1="0" x2="0" y2="1"><stop offset="0" stop-color="#B79CFF"/><stop offset="1" stop-color="#5B3BD0"/></linearGradient></defs><ellipse cx="80" cy="148" rx="40" ry="5" fill="#000" opacity=".3"/><ellipse cx="55" cy="36" rx="9" ry="15" transform="rotate(-24 55 36)" fill="url(#bobo2b)" stroke="#2A55C9" stroke-opacity="0.5" stroke-width="2.5" stroke-linejoin="round"/><ellipse cx="105" cy="36" rx="9" ry="15" transform="rotate(24 105 36)" fill="url(#bobo2b)" stroke="#2A55C9" stroke-opacity="0.5" stroke-width="2.5" stroke-linejoin="round"/><ellipse cx="30" cy="98" rx="14" ry="8.5" transform="rotate(-28 30 98)" fill="url(#bobo2b)" stroke="#2A55C9" stroke-opacity="0.5" stroke-width="2.5" stroke-linejoin="round"/><ellipse cx="130" cy="98" rx="14" ry="8.5" transform="rotate(28 130 98)" fill="url(#bobo2b)" stroke="#2A55C9" stroke-opacity="0.5" stroke-width="2.5" stroke-linejoin="round"/><ellipse cx="60" cy="138" rx="16" ry="8" fill="url(#bobo2b)" stroke="#2A55C9" stroke-opacity="0.5" stroke-width="2.5" stroke-linejoin="round"/><ellipse cx="100" cy="138" rx="16" ry="8" fill="url(#bobo2b)" stroke="#2A55C9" stroke-opacity="0.5" stroke-width="2.5" stroke-linejoin="round"/><path d="M80 30C106 30 122 54 122 86C122 116 112 134 80 134C48 134 38 116 38 86C38 54 54 30 80 30Z" fill="url(#bobo2b)" stroke="#2A55C9" stroke-opacity="0.5" stroke-width="2.5" stroke-linejoin="round"/><path d="M104 112L128 132L112 138L98 124Z" fill="url(#bobo2m)" stroke="#3A1FA0" stroke-opacity="0.5" stroke-width="2.5" stroke-linejoin="round"/><path d="M42 106Q80 124 118 106L118 120Q80 138 42 120Z" fill="url(#bobo2m)" stroke="#3A1FA0" stroke-opacity="0.5" stroke-width="2.5" stroke-linejoin="round"/><path d="M80 116Q80 122 86 122Q80 122 80 128Q80 122 74 122Q80 122 80 116Z" fill="#FFE27A" opacity="1"/><ellipse cx="60" cy="52" rx="14" ry="6.5" transform="rotate(-28 60 52)" fill="#fff" opacity=".7"/><ellipse cx="64" cy="82" rx="7.5" ry="9.5" fill="#12184a"/><ellipse cx="61.8" cy="78.7" rx="3.1" ry="3.4" fill="#fff"/><circle cx="66.6" cy="85.8" r="1.3" fill="#fff" opacity=".85"/><ellipse cx="96" cy="82" rx="7.5" ry="9.5" fill="#12184a"/><ellipse cx="93.8" cy="78.7" rx="3.1" ry="3.4" fill="#fff"/><circle cx="98.6" cy="85.8" r="1.3" fill="#fff" opacity=".85"/><ellipse cx="50" cy="95" rx="5" ry="3.2" fill="#ff8fb8" opacity="0.5"/><ellipse cx="110" cy="95" rx="5" ry="3.2" fill="#ff8fb8" opacity="0.5"/><path d="M74.5 96Q80 101.2 85.5 96" fill="none" stroke="#15183f" stroke-width="2.4" stroke-linecap="round"/><path d="M80 53Q80 58 85 58Q80 58 80 63Q80 58 75 58Q80 58 80 53Z" fill="#FFE27A" opacity="1"/></svg>