<svg xmlns="http://www.w3.org/2000/svg" viewBox="0 0 160 160" width="160" height="160"><defs><linearGradient id="bobo1b" x1="0" y1="0" x2="0" y2="1"><stop offset="0" stop-color="#A9CCFF"/><stop offset=".5" stop-color="#4C8DFF"/><stop offset="1" stop-color="#2F5FD6"/></linearGradient><linearGradient id="bobo1m" x1="0" y1="0" x2="0" y2="1"><stop offset="0" stop-color="#B79CFF"/><stop offset="1" stop-color="#5B3BD0"/></linearGradient></defs><ellipse cx="80" cy="148" rx="40" ry="5" fill="#000" opacity=".3"/><path d="M80 28C90 40 92 47 80 54C68 47 70 40 80 28Z" fill="url(#bobo1b)" stroke="#2A55C9" stroke-opacity="0.5" stroke-width="2.5" stroke-linejoin="round"/><path d="M80 46C112 46 134 72 134 102C134 128 112 142 80 142C48 142 26 128 26 102C26 72 48 46 80 46Z" fill="url(#bobo1b)" stroke="#2A55C9" stroke-opacity="0.5" stroke-width="2.5" stroke-linejoin="round"/><ellipse cx="80" cy="120" rx="40" ry="18" fill="#BFD8FF" opacity=".3"/><ellipse cx="56" cy="68" rx="15" ry="7" transform="rotate(-28 56 68)" fill="#fff" opacity=".7"/><circle cx="40" cy="86" r="3.2" fill="#fff" opacity=".6"/><path d="M108 138C122 132 132 120 132 104" fill="none" stroke="#7FB0FF" stroke-width="3" stroke-linecap="round" opacity=".8"/><ellipse cx="60" cy="98" rx="8.5" ry="10.5" fill="#12184a"/><ellipse cx="57.5" cy="94.3" rx="3.6" ry="3.8" fill="#fff"/><circle cx="63.0" cy="102.2" r="1.5" fill="#fff" opacity=".85"/><ellipse cx="100" cy="98" rx="8.5" ry="10.5" fill="#12184a"/><ellipse cx="97.5" cy="94.3" rx="3.6" ry="3.8" fill="#fff"/><circle cx="103.0" cy="102.2" r="1.5" fill="#fff" opacity=".85"/><ellipse cx="44" cy="112" rx="5" ry="3.2" fill="#ff8fb8" opacity="0.5"/><ellipse cx="116" cy="112" rx="5" ry="3.2" fill="#ff8fb8" opacity="0.5"/><path d="M74 112Q80 117.7 86 112" fill="none" stroke="#15183f" stroke-width="2.4" stroke-linecap="round"/><path d="M80 70Q80 76 86 76Q80 76 80 82Q80 76 74 76Q80 76 80 70Z" fill="#FFE27A" opacity="1"/></svg>