<svg xmlns="http://www.w3.org/2000/svg" viewBox="0 0 160 160" width="160" height="160"><defs><linearGradient id="comet1b" x1="0" y1="0" x2="0" y2="1"><stop offset="0" stop-color="#FFE066"/><stop offset=".5" stop-color="#FF9A2E"/><stop offset="1" stop-color="#E8501A"/></linearGradient><linearGradient id="comet1f" x1="0" y1="1" x2="0" y2="0"><stop offset="0" stop-color="#E8501A"/><stop offset=".5" stop-color="#FF8A2B"/><stop offset="1" stop-color="#FFD23F"/></linearGradient><linearGradient id="comet1g" x1="0" y1="1" x2="0" y2="0"><stop offset="0" stop-color="#FF9A2E"/><stop offset="1" stop-color="#FFF6C0"/></linearGradient><linearGradient id="comet1gd" x1="0" y1="0" x2="0" y2="1"><stop offset="0" stop-color="#FFF3B0"/><stop offset="1" stop-color="#F2A81D"/></linearGradient></defs><ellipse cx="80" cy="149" rx="36" ry="5" fill="#000" opacity=".3"/><path d="M122 112C138 108 148 120 152 136C140 130 128 130 118 128Z" fill="url(#comet1g)" stroke="#B93510" stroke-opacity="0.6" stroke-width="2.5" stroke-linejoin="round"/><path d="M50 78C42 56 54 48 52 32C66 42 70 54 72 64C74 46 82 36 86 20C96 40 94 52 100 64C106 54 110 48 112 40C122 58 114 72 112 82Z" fill="url(#comet1g)" stroke="#B93510" stroke-opacity="0.6" stroke-width="2.5" stroke-linejoin="round"/><ellipse cx="62" cy="142" rx="13" ry="7" fill="#E8501A" stroke="#B93510" stroke-opacity="0.6" stroke-width="2.5" stroke-linejoin="round"/><ellipse cx="98" cy="142" rx="13" ry="7" fill="#E8501A" stroke="#B93510" stroke-opacity="0.6" stroke-width="2.5" stroke-linejoin="round"/><path d="M80 58C112 58 128 80 128 102C128 128 108 142 80 142C52 142 32 128 32 102C32 80 48 58 80 58Z" fill="url(#comet1b)" stroke="#B93510" stroke-opacity="0.6" stroke-width="2.5" stroke-linejoin="round"/><ellipse cx="80" cy="116" rx="32" ry="20" fill="#FFF1A8" opacity=".4"/><ellipse cx="58" cy="76" rx="14" ry="6.5" transform="rotate(-28 58 76)" fill="#fff" opacity=".7"/><ellipse cx="62" cy="100" rx="8" ry="9.6" fill="#4A1A0A"/><ellipse cx="59.6" cy="96.6" rx="3.4" ry="3.5" fill="#fff"/><circle cx="64.8" cy="103.8" r="1.4" fill="#fff" opacity=".85"/><ellipse cx="98" cy="100" rx="8" ry="9.6" fill="#4A1A0A"/><ellipse cx="95.6" cy="96.6" rx="3.4" ry="3.5" fill="#fff"/><circle cx="100.8" cy="103.8" r="1.4" fill="#fff" opacity=".85"/><ellipse cx="46" cy="114" rx="5" ry="3.2" fill="#FF5A3A" opacity="0.5"/><ellipse cx="114" cy="114" rx="5" ry="3.2" fill="#FF5A3A" opacity="0.5"/><path d="M74 114Q80 119.7 86 114" fill="none" stroke="#4A1A0A" stroke-width="2.4" stroke-linecap="round"/></svg>