<svg xmlns="http://www.w3.org/2000/svg" viewBox="0 0 160 160" width="160" height="160"><defs><linearGradient id="gem4f" x1="0" y1="0" x2="0" y2="1"><stop offset="0" stop-color="#B8F7FF"/><stop offset="1" stop-color="#3FD0EA"/></linearGradient><linearGradient id="gem4k" x1="0" y1="0" x2="0" y2="1"><stop offset="0" stop-color="#9A78F5"/><stop offset="1" stop-color="#4B2FB5"/></linearGradient><linearGradient id="gem4h" x1="0" y1="0" x2="0" y2="1"><stop offset="0" stop-color="#F4FEFF"/><stop offset="1" stop-color="#8EEBF7"/></linearGradient><linearGradient id="gem4gd" x1="0" y1="0" x2="0" y2="1"><stop offset="0" stop-color="#FFF3B0"/><stop offset="1" stop-color="#F2A81D"/></linearGradient><radialGradient id="gem4au" cx="0.5" cy="0.5" r="0.5"><stop offset="0" stop-color="#8B7CFF" stop-opacity="0.6"/><stop offset="1" stop-color="#8B7CFF" stop-opacity="0"/></radialGradient></defs><g transform="translate(80 82) scale(0.95) translate(-80 -82)"><circle cx="80" cy="84" r="80" fill="url(#gem4au)"/><ellipse cx="80" cy="84" rx="68" ry="16" fill="none" stroke="url(#gem4gd)" stroke-width="3.5" opacity=".9" transform="rotate(-10 80 84)"/><path d="M56 106L104 106L80 152Z" fill="url(#gem4k)" stroke="#2A1F7A" stroke-width="4" stroke-linejoin="round"/><path d="M56 106L80 106L80 152Z" fill="url(#gem4f)" opacity=".9"/><g transform="rotate(-24 50 56)"><path d="M41.0 32L49.1 18L59.0 32L59.0 56L41.0 56Z" fill="#2A1F7A" stroke="#2A1F7A" stroke-opacity=".75" stroke-width="9" stroke-linejoin="round"/><path d="M41.0 32L49.1 18L55.0 32L55.0 56L41.0 56Z" fill="url(#gem4f)" stroke="url(#gem4f)" stroke-width="4" stroke-linejoin="round"/><path d="M49.1 18L59.0 32L59.0 56L55.0 56L55.0 32Z" fill="url(#gem4k)" stroke="url(#gem4k)" stroke-width="4" stroke-linejoin="round"/><path d="M41.0 32L49.1 18L55.0 32Z" fill="url(#gem4h)" stroke="url(#gem4h)" stroke-width="3" stroke-linejoin="round"/><path d="M43.2 35.4L43.2 48.8" stroke="#fff" stroke-opacity=".6" stroke-width="3.5" stroke-linecap="round"/></g><g transform="rotate(24 110 56)"><path d="M101.0 32L109.1 18L119.0 32L119.0 56L101.0 56Z" fill="#2A1F7A" stroke="#2A1F7A" stroke-opacity=".75" stroke-width="9" stroke-linejoin="round"/><path d="M101.0 32L109.1 18L115.0 32L115.0 56L101.0 56Z" fill="url(#gem4f)" stroke="url(#gem4f)" stroke-width="4" stroke-linejoin="round"/><path d="M109.1 18L119.0 32L119.0 56L115.0 56L115.0 32Z" fill="url(#gem4k)" stroke="url(#gem4k)" stroke-width="4" stroke-linejoin="round"/><path d="M101.0 32L109.1 18L115.0 32Z" fill="url(#gem4h)" stroke="url(#gem4h)" stroke-width="3" stroke-linejoin="round"/><path d="M103.2 35.4L103.2 48.8" stroke="#fff" stroke-opacity=".6" stroke-width="3.5" stroke-linecap="round"/></g><g><path d="M38.0 48L75.8 8L122.0 48L122.0 110L38.0 110Z" fill="#2A1F7A" stroke="#2A1F7A" stroke-opacity=".75" stroke-width="9" stroke-linejoin="round"/><path d="M38.0 48L75.8 8L103.5 48L103.5 110L38.0 110Z" fill="url(#gem4f)" stroke="url(#gem4f)" stroke-width="4" stroke-linejoin="round"/><path d="M75.8 8L122.0 48L122.0 110L103.5 110L103.5 48Z" fill="url(#gem4k)" stroke="url(#gem4k)" stroke-width="4" stroke-linejoin="round"/><path d="M38.0 48L75.8 8L103.5 48Z" fill="url(#gem4h)" stroke="url(#gem4h)" stroke-width="3" stroke-linejoin="round"/><path d="M48.1 56.7L48.1 91.4" stroke="#fff" stroke-opacity=".6" stroke-width="3.5" stroke-linecap="round"/></g><path d="M44 96L116 96L112 106L48 106Z" fill="url(#gem4gd)" stroke="#B9770E" stroke-width="1.5" stroke-linejoin="round"/><path d="M80 92L88 101L80 110L72 101Z" fill="#fff" stroke="#B9770E" stroke-width="1.5"/><ellipse cx="56" cy="66" rx="7.5" ry="9.0" fill="#1B1458"/><ellipse cx="53.8" cy="62.9" rx="3.1" ry="3.2" fill="#fff"/><circle cx="58.6" cy="69.6" r="1.3" fill="#fff" opacity=".85"/><ellipse cx="88" cy="66" rx="7.5" ry="9.0" fill="#1B1458"/><ellipse cx="85.8" cy="62.9" rx="3.1" ry="3.2" fill="#fff"/><circle cx="90.6" cy="69.6" r="1.3" fill="#fff" opacity=".85"/><path d="M65.5 80Q72 86.2 78.5 80" fill="none" stroke="#1B1458" stroke-width="2.4" stroke-linecap="round"/><ellipse cx="42" cy="76" rx="5" ry="3.2" fill="#FF8FB8" opacity="0.5"/><ellipse cx="102" cy="76" rx="5" ry="3.2" fill="#FF8FB8" opacity="0.5"/><g transform="rotate(-14 22 124)"><path d="M11.0 102L20.9 90L33.0 102L33.0 124L11.0 124Z" fill="#2A1F7A" stroke="#2A1F7A" stroke-opacity=".75" stroke-width="9" stroke-linejoin="round"/><path d="M11.0 102L20.9 90L28.1 102L28.1 124L11.0 124Z" fill="url(#gem4f)" stroke="url(#gem4f)" stroke-width="4" stroke-linejoin="round"/><path d="M20.9 90L33.0 102L33.0 124L28.1 124L28.1 102Z" fill="url(#gem4k)" stroke="url(#gem4k)" stroke-width="4" stroke-linejoin="round"/><path d="M11.0 102L20.9 90L28.1 102Z" fill="url(#gem4h)" stroke="url(#gem4h)" stroke-width="3" stroke-linejoin="round"/><path d="M13.6 105.1L13.6 117.4" stroke="#fff" stroke-opacity=".6" stroke-width="3.5" stroke-linecap="round"/></g><g transform="rotate(14 138 124)"><path d="M127.0 102L136.9 90L149.0 102L149.0 124L127.0 124Z" fill="#2A1F7A" stroke="#2A1F7A" stroke-opacity=".75" stroke-width="9" stroke-linejoin="round"/><path d="M127.0 102L136.9 90L144.1 102L144.1 124L127.0 124Z" fill="url(#gem4f)" stroke="url(#gem4f)" stroke-width="4" stroke-linejoin="round"/><path d="M136.9 90L149.0 102L149.0 124L144.1 124L144.1 102Z" fill="url(#gem4k)" stroke="url(#gem4k)" stroke-width="4" stroke-linejoin="round"/><path d="M127.0 102L136.9 90L144.1 102Z" fill="url(#gem4h)" stroke="url(#gem4h)" stroke-width="3" stroke-linejoin="round"/><path d="M129.6 105.1L129.6 117.4" stroke="#fff" stroke-opacity=".6" stroke-width="3.5" stroke-linecap="round"/></g><path d="M12 84Q80 118 148 84" fill="none" stroke="url(#gem4gd)" stroke-width="3" opacity="0"/><path d="M24 14Q24 20 30 20Q24 20 24 26Q24 20 18 20Q24 20 24 14Z" fill="#FFF3B0" opacity="0.9"/><path d="M140 8Q140 14 146 14Q140 14 140 20Q140 14 134 14Q140 14 140 8Z" fill="#FFF3B0" opacity="0.9"/><path d="M10 135Q10 140 15 140Q10 140 10 145Q10 140 5 140Q10 140 10 135Z" fill="#FFF3B0" opacity="0.9"/><path d="M150 132Q150 138 156 138Q150 138 150 144Q150 138 144 138Q150 138 150 132Z" fill="#FFF3B0" opacity="0.9"/><path d="M80 156Q80 156 80 156Q80 156 80 156Q80 156 80 156Q80 156 80 156Z" fill="#FFF3B0" opacity="0.9"/></g></svg>