<svg xmlns="http://www.w3.org/2000/svg" viewBox="0 0 160 160" width="160" height="160"><defs><linearGradient id="octo2b" x1="0" y1="0" x2="0" y2="1"><stop offset="0" stop-color="#FFA6C9"/><stop offset=".5" stop-color="#FF6FA5"/><stop offset="1" stop-color="#E24A88"/></linearGradient><linearGradient id="octo2m" x1="0" y1="0" x2="0" y2="1"><stop offset="0" stop-color="#B58AFF"/><stop offset="1" stop-color="#5B3BD0"/></linearGradient><linearGradient id="octo2c" x1="0" y1="0" x2="0" y2="1"><stop offset="0" stop-color="#8A68E8"/><stop offset="1" stop-color="#3E2A96"/></linearGradient><linearGradient id="octo2gd" x1="0" y1="0" x2="0" y2="1"><stop offset="0" stop-color="#FFF3B0"/><stop offset="1" stop-color="#F2A81D"/></linearGradient><linearGradient id="octo2s" x1="0" y1="0" x2="0" y2="1"><stop offset="0" stop-color="#F1F4FB"/><stop offset="1" stop-color="#98A6C8"/></linearGradient></defs><ellipse cx="80" cy="152" rx="38" ry="5" fill="#000" opacity=".3"/><rect x="20" y="86" width="14" height="30" rx="7" fill="url(#octo2s)" stroke="#5C6B94" stroke-opacity="0.7" stroke-width="2.5" stroke-linejoin="round" transform="rotate(14 27 100)"/><rect x="126" y="86" width="14" height="30" rx="7" fill="url(#octo2s)" stroke="#5C6B94" stroke-opacity="0.7" stroke-width="2.5" stroke-linejoin="round" transform="rotate(-14 133 100)"/><path d="M48 112C30 114 16 126 20 138C24 146 34 142 30 136" fill="none" stroke="#9C2358" stroke-opacity=".6" stroke-width="16" stroke-linecap="round"/><path d="M48 112C30 114 16 126 20 138C24 146 34 142 30 136" fill="none" stroke="#FF6FA5" stroke-width="13" stroke-linecap="round"/><path d="M48 112C30 114 16 126 20 138C24 146 34 142 30 136" fill="none" stroke="#fff" stroke-opacity="0.3" stroke-width="2.9" stroke-linecap="round" transform="translate(-2.9 0)"/><path d="M60 118C48 130 44 144 52 148C58 150 62 144 58 140" fill="none" stroke="#9C2358" stroke-opacity=".6" stroke-width="16" stroke-linecap="round"/><path d="M60 118C48 130 44 144 52 148C58 150 62 144 58 140" fill="none" stroke="#FF6FA5" stroke-width="13" stroke-linecap="round"/><path d="M60 118C48 130 44 144 52 148C58 150 62 144 58 140" fill="none" stroke="#fff" stroke-opacity="0.3" stroke-width="2.9" stroke-linecap="round" transform="translate(-2.9 0)"/><path d="M72 122C70 134 70 144 76 146" fill="none" stroke="#9C2358" stroke-opacity=".6" stroke-width="16" stroke-linecap="round"/><path d="M72 122C70 134 70 144 76 146" fill="none" stroke="#FF6FA5" stroke-width="13" stroke-linecap="round"/><path d="M72 122C70 134 70 144 76 146" fill="none" stroke="#fff" stroke-opacity="0.3" stroke-width="2.9" stroke-linecap="round" transform="translate(-2.9 0)"/><path d="M88 122C90 134 90 144 84 146" fill="none" stroke="#9C2358" stroke-opacity=".6" stroke-width="16" stroke-linecap="round"/><path d="M88 122C90 134 90 144 84 146" fill="none" stroke="#FF6FA5" stroke-width="13" stroke-linecap="round"/><path d="M88 122C90 134 90 144 84 146" fill="none" stroke="#fff" stroke-opacity="0.3" stroke-width="2.9" stroke-linecap="round" transform="translate(-2.9 0)"/><path d="M100 118C112 130 116 144 108 148C102 150 98 144 102 140" fill="none" stroke="#9C2358" stroke-opacity=".6" stroke-width="16" stroke-linecap="round"/><path d="M100 118C112 130 116 144 108 148C102 150 98 144 102 140" fill="none" stroke="#FF6FA5" stroke-width="13" stroke-linecap="round"/><path d="M100 118C112 130 116 144 108 148C102 150 98 144 102 140" fill="none" stroke="#fff" stroke-opacity="0.3" stroke-width="2.9" stroke-linecap="round" transform="translate(-2.9 0)"/><path d="M112 112C130 114 144 126 140 138C136 146 126 142 130 136" fill="none" stroke="#9C2358" stroke-opacity=".6" stroke-width="16" stroke-linecap="round"/><path d="M112 112C130 114 144 126 140 138C136 146 126 142 130 136" fill="none" stroke="#FF6FA5" stroke-width="13" stroke-linecap="round"/><path d="M112 112C130 114 144 126 140 138C136 146 126 142 130 136" fill="none" stroke="#fff" stroke-opacity="0.3" stroke-width="2.9" stroke-linecap="round" transform="translate(-2.9 0)"/><ellipse cx="80" cy="64" rx="38" ry="34" fill="url(#octo2b)" stroke="#9C2358" stroke-opacity="0.6" stroke-width="2.5" stroke-linejoin="round"/><ellipse cx="64" cy="46" rx="10" ry="5" transform="rotate(-28 64 46)" fill="#fff" opacity=".55"/><ellipse cx="65" cy="68" rx="8" ry="9.6" fill="#4A0F2E"/><ellipse cx="62.6" cy="64.6" rx="3.4" ry="3.5" fill="#fff"/><circle cx="67.8" cy="71.8" r="1.4" fill="#fff" opacity=".85"/><ellipse cx="95" cy="68" rx="8" ry="9.6" fill="#4A0F2E"/><ellipse cx="92.6" cy="64.6" rx="3.4" ry="3.5" fill="#fff"/><circle cx="97.8" cy="71.8" r="1.4" fill="#fff" opacity=".85"/><ellipse cx="52" cy="80" rx="4.5" ry="2.9" fill="#FF5A8A" opacity="0.5"/><ellipse cx="108" cy="80" rx="4.5" ry="2.9" fill="#FF5A8A" opacity="0.5"/><path d="M75 82Q80 86.8 85 82" fill="none" stroke="#4A0F2E" stroke-width="2.4" stroke-linecap="round"/><circle cx="80" cy="58" r="52" fill="#BFE9FF" fill-opacity=".14" stroke="#fff" stroke-opacity=".75" stroke-width="3"/><path d="M42 44Q50 22 76 14" fill="none" stroke="#fff" stroke-width="5" stroke-linecap="round" opacity=".85"/><circle cx="36" cy="60" r="2.5" fill="#fff" opacity=".8"/><path d="M40 100Q80 120 120 100L124 112Q80 134 36 112Z" fill="url(#octo2s)" stroke="#5C6B94" stroke-opacity="0.7" stroke-width="2.5" stroke-linejoin="round"/><circle cx="80" cy="116" r="4.5" fill="url(#octo2gd)"/><circle cx="56" cy="110" r="2.6" fill="#5FFFE9"/><circle cx="104" cy="110" r="2.6" fill="#FF8DB8"/><rect x="79" y="4" width="3" height="8" fill="#98A6C8"/><circle cx="80" cy="4" r="4" fill="url(#octo2gd)"/></svg>