<svg xmlns="http://www.w3.org/2000/svg" viewBox="0 0 160 160" width="160" height="160"><defs><linearGradient id="rabbit3b" x1="0" y1="0" x2="0" y2="1"><stop offset="0" stop-color="#F2EBFF"/><stop offset="1" stop-color="#B79CFF"/></linearGradient><linearGradient id="rabbit3v" x1="0" y1="0" x2="0" y2="1"><stop offset="0" stop-color="#C9B6FF"/><stop offset="1" stop-color="#7C5CD6"/></linearGradient><linearGradient id="rabbit3c" x1="0" y1="0" x2="0" y2="1"><stop offset="0" stop-color="#8A68E8"/><stop offset="1" stop-color="#3E2A96"/></linearGradient><linearGradient id="rabbit3gd" x1="0" y1="0" x2="0" y2="1"><stop offset="0" stop-color="#FFF3B0"/><stop offset="1" stop-color="#F2A81D"/></linearGradient><linearGradient id="rabbit3s" x1="0" y1="0" x2="0" y2="1"><stop offset="0" stop-color="#E9EEF8"/><stop offset="1" stop-color="#98A6C8"/></linearGradient></defs><ellipse cx="80" cy="152" rx="42" ry="5" fill="#000" opacity=".3"/><path d="M122 18A30 30 0 1 0 122 76A24 24 0 1 1 122 18Z" fill="url(#rabbit3gd)" opacity=".95"/><path d="M52 66L14 138Q80 160 146 138L108 66Z" fill="url(#rabbit3c)" stroke="#2A1A70" stroke-opacity="0.7" stroke-width="2.5" stroke-linejoin="round"/><path d="M30 125Q30 130 35 130Q30 130 30 135Q30 130 25 130Q30 130 30 125Z" fill="#fff" opacity="0.8"/><path d="M132 124Q132 128 136 128Q132 128 132 132Q132 128 128 128Q132 128 132 124Z" fill="#fff" opacity="0.8"/><circle cx="22" cy="142" r="1.6" fill="#fff" opacity="0.8"/><circle cx="140" cy="142" r="1.6" fill="#fff" opacity="0.8"/><circle cx="46" cy="148" r="1.4" fill="#fff" opacity="0.8"/><path d="M16 138Q80 158 144 138" fill="none" stroke="url(#rabbit3gd)" stroke-width="3" opacity=".9"/><ellipse cx="82" cy="12" rx="0" ry="0"/><ellipse cx="64" cy="25" rx="8.5" ry="19" transform="rotate(-8 64 25)" fill="url(#rabbit3b)" stroke="#7C5CD6" stroke-opacity="0.6" stroke-width="2.5" stroke-linejoin="round"/><ellipse cx="64" cy="26.9" rx="4.2" ry="13.7" transform="rotate(-8 64 25)" fill="#FFB3D9" opacity=".85"/><ellipse cx="96" cy="25" rx="8.5" ry="19" transform="rotate(8 96 25)" fill="url(#rabbit3b)" stroke="#7C5CD6" stroke-opacity="0.6" stroke-width="2.5" stroke-linejoin="round"/><ellipse cx="96" cy="26.9" rx="4.2" ry="13.7" transform="rotate(8 96 25)" fill="#FFB3D9" opacity=".85"/><ellipse cx="80" cy="152" rx="0" ry="0"/><rect x="56" y="112" width="20" height="30" rx="10" fill="url(#rabbit3b)" stroke="#7C5CD6" stroke-opacity="0.6" stroke-width="2.5" stroke-linejoin="round"/><rect x="84" y="112" width="20" height="30" rx="10" fill="url(#rabbit3b)" stroke="#7C5CD6" stroke-opacity="0.6" stroke-width="2.5" stroke-linejoin="round"/><rect x="50" y="136" width="30" height="12" rx="6" fill="url(#rabbit3s)" stroke="#5C6B94" stroke-opacity="0.7" stroke-width="2.5" stroke-linejoin="round"/><rect x="80" y="136" width="30" height="12" rx="6" fill="url(#rabbit3s)" stroke="#5C6B94" stroke-opacity="0.7" stroke-width="2.5" stroke-linejoin="round"/><rect x="54" y="70" width="52" height="48" rx="20" fill="url(#rabbit3b)" stroke="#7C5CD6" stroke-opacity="0.6" stroke-width="2.5" stroke-linejoin="round"/><path d="M58 76H102L96 112Q80 120 64 112Z" fill="url(#rabbit3s)" stroke="#5C6B94" stroke-opacity="0.7" stroke-width="2.5" stroke-linejoin="round"/><path d="M80 80l5 10l-5 10l-5 -10Z" fill="url(#rabbit3gd)"/><rect x="122" y="52" width="4" height="92" rx="2" fill="url(#rabbit3gd)"/><path d="M130 44A12 12 0 1 0 130 70A9 9 0 1 1 130 44Z" fill="url(#rabbit3gd)" stroke="#B9770E" stroke-width="1.5"/><ellipse cx="116" cy="94" rx="9" ry="9" fill="url(#rabbit3b)" stroke="#7C5CD6" stroke-opacity="0.6" stroke-width="2.5" stroke-linejoin="round"/><ellipse cx="50" cy="90" rx="9" ry="14" transform="rotate(12 50 90)" fill="url(#rabbit3b)" stroke="#7C5CD6" stroke-opacity="0.6" stroke-width="2.5" stroke-linejoin="round"/><ellipse cx="44" cy="76" rx="16" ry="12" fill="url(#rabbit3s)" stroke="#5C6B94" stroke-opacity="0.7" stroke-width="2.5" stroke-linejoin="round"/><ellipse cx="116" cy="76" rx="16" ry="12" fill="url(#rabbit3s)" stroke="#5C6B94" stroke-opacity="0.7" stroke-width="2.5" stroke-linejoin="round"/><circle cx="44" cy="76" r="3.5" fill="#FFD66B"/><circle cx="116" cy="76" r="3.5" fill="#FFD66B"/><ellipse cx="80" cy="52" rx="28" ry="25" fill="url(#rabbit3b)" stroke="#7C5CD6" stroke-opacity="0.6" stroke-width="2.5" stroke-linejoin="round"/><ellipse cx="67" cy="52" rx="5.5" ry="8.0" fill="#241552"/><ellipse cx="65.3" cy="49.2" rx="2.3" ry="2.9" fill="#fff"/><circle cx="68.9" cy="55.2" r="1.0" fill="#fff" opacity=".85"/><ellipse cx="93" cy="52" rx="5.5" ry="8.0" fill="#241552"/><ellipse cx="91.3" cy="49.2" rx="2.3" ry="2.9" fill="#fff"/><circle cx="94.9" cy="55.2" r="1.0" fill="#fff" opacity=".85"/><path d="M77 59Q80 56.5 83 59Q80 62.5 77 59Z" fill="#FF8DB8"/><path d="M75.5 62Q80 66.3 84.5 62" fill="none" stroke="#241552" stroke-width="2" stroke-linecap="round"/><ellipse cx="56" cy="63" rx="4.5" ry="2.9" fill="#FF8DB8" opacity="0.6"/><ellipse cx="104" cy="63" rx="4.5" ry="2.9" fill="#FF8DB8" opacity="0.6"/><path d="M60 36L64 26L72 32L80 22L88 32L96 26L100 36Z" fill="url(#rabbit3gd)" stroke="#B9770E" stroke-width="1.5" stroke-linejoin="round" opacity="0"/><path d="M58 42Q64 32 76 30" fill="none" stroke="#fff" stroke-width="4" stroke-linecap="round" opacity=".85"/></svg>