<svg xmlns="http://www.w3.org/2000/svg" viewBox="0 0 160 160" width="160" height="160"><defs><linearGradient id="fl2-b" x1="0" y1="0" x2="1" y2="1"><stop offset="0.00" stop-color="#EE6A52"/><stop offset="0.50" stop-color="#C7362E"/><stop offset="1.00" stop-color="#7E1B26"/></linearGradient><linearGradient id="fl2-g" x1="0" y1="0" x2="0" y2="1"><stop offset="0.00" stop-color="#FFEDA8"/><stop offset="1.00" stop-color="#F2A93B"/></linearGradient><linearGradient id="fl2-h" x1="0" y1="0" x2="1" y2="1"><stop offset="0.00" stop-color="#FFF6DA"/><stop offset="1.00" stop-color="#E0AE5E"/></linearGradient><linearGradient id="fl2-f" x1="0" y1="0" x2="0" y2="1"><stop offset="0.00" stop-color="#FF5A2E"/><stop offset="0.50" stop-color="#FF9A2E"/><stop offset="1.00" stop-color="#FFD54A"/></linearGradient><linearGradient id="fl2-w" x1="0" y1="1" x2="0" y2="0"><stop offset="0.00" stop-color="#8E1F2A"/><stop offset="0.50" stop-color="#D8402E"/><stop offset="1.00" stop-color="#FF9A2E"/></linearGradient><linearGradient id="fl2-gd" x1="0" y1="0" x2="1" y2="1"><stop offset="0.00" stop-color="#FFF3A8"/><stop offset="0.50" stop-color="#F2B632"/><stop offset="1.00" stop-color="#B27A12"/></linearGradient><g id="fl2-wg"><path d="M96 96C112 78 132 82 144 62C148 80 142 92 138 100C132 96 128 100 124 104C120 100 114 102 108 108Z" fill="url(#fl2-w)"/><path d="M96 96C112 78 132 82 144 62" fill="none" stroke="#7E1B26" stroke-width="2.5" stroke-linecap="round"/></g><g id="fl2-ft"><ellipse cx="64" cy="142" rx="13" ry="7" fill="#A82B2C"/><path d="M56 145v-3M64 146v-3M72 145v-3" stroke="#FFE9A0" stroke-width="2.2" stroke-linecap="round"/></g><g id="fl2-ar"><ellipse cx="54" cy="110" rx="8" ry="13" transform="rotate(18 54 110)" fill="url(#fl2-b)"/><rect x="45" y="114" width="14" height="5" rx="2.5" transform="rotate(18 52 116)" fill="url(#fl2-gd)"/></g><g id="fl2-hn"><path d="M98 46C110 40 120 28 116 12C108 18 102 26 94 36Z" fill="url(#fl2-h)"/><path d="M114 16C110 22 106 26 100 32" stroke="#fff" stroke-opacity=".6" stroke-width="1.5" fill="none"/></g><linearGradient id="fl2-m" x1="0" y1="0" x2="1" y2="1"><stop offset="0.00" stop-color="#F6C095"/><stop offset="0.50" stop-color="#C0713A"/><stop offset="1.00" stop-color="#7A3F18"/></linearGradient></defs><ellipse cx="80" cy="150" rx="38" ry="5" fill="#120a1e" opacity=".35"/><use href="#fl2-wg"/><use href="#fl2-wg" transform="translate(160 0) scale(-1 1)"/><path d="M100 128C128 134 144 118 136 98C133 92 130 90 128 88" fill="none" stroke="#B02C2E" stroke-width="10" stroke-linecap="round"/><g transform="translate(128 90) rotate(-10) scale(1.6 1.6)"><path d="M0 0C-7 -1 -9 -9 -4 -14C-3 -11 -2 -10 -1 -10C-2 -15 0 -18 2 -21C3 -15 9 -11 8 -6C7 -2 4 0 0 0Z" fill="url(#fl2-f)"/><path d="M0 -1C-4 -2 -4 -7 -1 -9C0 -7 1 -6 2 -6C4 -4 3 -1 0 -1Z" fill="#FFE66B"/></g><use href="#fl2-ft"/><use href="#fl2-ft" transform="translate(160 0) scale(-1 1)"/><ellipse cx="80" cy="112" rx="28" ry="31" fill="url(#fl2-b)"/><ellipse cx="80" cy="118" rx="17" ry="22" fill="url(#fl2-g)"/><path d="M66 108h28M65 116h30M66 124h28M68 132h24" stroke="#D98A2B" stroke-width="1.6" opacity=".6" stroke-linecap="round"/><use href="#fl2-ar"/><use href="#fl2-ar" transform="translate(160 0) scale(-1 1)"/><use href="#fl2-hn"/><use href="#fl2-hn" transform="translate(160 0) scale(-1 1)"/><ellipse cx="80" cy="62" rx="32" ry="28" fill="url(#fl2-b)"/><g transform="translate(80 36) rotate(0) scale(0.9 1.1)"><path d="M0 0C-7 -1 -9 -9 -4 -14C-3 -11 -2 -10 -1 -10C-2 -15 0 -18 2 -21C3 -15 9 -11 8 -6C7 -2 4 0 0 0Z" fill="url(#fl2-f)"/><path d="M0 -1C-4 -2 -4 -7 -1 -9C0 -7 1 -6 2 -6C4 -4 3 -1 0 -1Z" fill="#FFE66B"/></g><ellipse cx="80" cy="73" rx="14" ry="9" fill="url(#fl2-g)"/><circle cx="75" cy="71" r="1.4" fill="#7E1B26"/><circle cx="85" cy="71" r="1.4" fill="#7E1B26"/><path d="M75.5 76Q80 80.0 84.5 76" fill="none" stroke="#4a1f2a" stroke-width="1.8" stroke-linecap="round"/><ellipse cx="65" cy="58" rx="7.5" ry="8.4" fill="#2a1a3a"/><circle cx="62.8" cy="55.1" r="2.9" fill="#fff"/><circle cx="67.8" cy="61.0" r="1.3" fill="#fff"/><ellipse cx="95" cy="58" rx="7.5" ry="8.4" fill="#2a1a3a"/><circle cx="92.8" cy="55.1" r="2.9" fill="#fff"/><circle cx="97.8" cy="61.0" r="1.3" fill="#fff"/><ellipse cx="55" cy="70" rx="6" ry="3.5" fill="#ff8aa0" opacity="0.5"/><ellipse cx="105" cy="70" rx="6" ry="3.5" fill="#ff8aa0" opacity="0.5"/><ellipse cx="62" cy="46" rx="8" ry="4" transform="rotate(-30 62 46)" fill="#fff" opacity="0.4"/><ellipse cx="80" cy="89" rx="24" ry="6" fill="url(#fl2-gd)"/><path d="M58 88Q80 96 102 88" stroke="#fff" stroke-opacity=".6" fill="none"/><circle cx="80" cy="95" r="6" fill="#7B1230"/><circle cx="80" cy="95" r="6" fill="none" stroke="#FFE08A" stroke-width="1.6"/><ellipse cx="78" cy="93" rx="2" ry="1.5" transform="rotate(0 78 93)" fill="#fff" opacity="0.9"/><circle cx="138" cy="22" r="12" fill="url(#fl2-m)" stroke="#ffffff99" stroke-width="1.2"/><circle cx="138" cy="22" r="9" fill="none" stroke="#00000033" stroke-width="1"/><path d="M138 15.5Q138 22 144.5 22Q138 22 138 28.5Q138 22 131.5 22Q138 22 138 15.5Z" fill="#fff" opacity="0.95"/></svg>