<svg xmlns="http://www.w3.org/2000/svg" viewBox="0 0 160 160" width="160" height="160"><defs><linearGradient id="mn3-b" x1="0" y1="0" x2="1" y2="1"><stop offset="0.00" stop-color="#8A8FEA"/><stop offset="0.50" stop-color="#4A4EB0"/><stop offset="1.00" stop-color="#262878"/></linearGradient><linearGradient id="mn3-tl" x1="0" y1="0" x2="0" y2="1"><stop offset="0.00" stop-color="#A5ABFF"/><stop offset="0.50" stop-color="#5B60CC"/><stop offset="1.00" stop-color="#32368F"/></linearGradient><linearGradient id="mn3-w" x1="0" y1="0" x2="0" y2="1"><stop offset="0.00" stop-color="#FFFFFF"/><stop offset="1.00" stop-color="#D8E2FF"/></linearGradient><linearGradient id="mn3-gd" x1="0" y1="0" x2="1" y2="1"><stop offset="0.00" stop-color="#FFF3A8"/><stop offset="0.50" stop-color="#F2B632"/><stop offset="1.00" stop-color="#B27A12"/></linearGradient><linearGradient id="mn3-cr" x1="0" y1="0" x2="1" y2="1"><stop offset="0.00" stop-color="#FFFFFF"/><stop offset="0.50" stop-color="#E4ECFF"/><stop offset="1.00" stop-color="#BFD0FF"/></linearGradient><g id="mn3-t"><path d="M0 0C-21 -10 -23 -36 0 -56C23 -36 21 -10 0 0Z" fill="url(#mn3-tl)" stroke="#C8CEFF" stroke-width="1.2"/><path d="M0 -56C-8 -49 -13 -43 -14 -38C-7 -42 7 -42 14 -38C13 -43 8 -49 0 -56Z" fill="#F3F6FF"/><path d="M-5 -8C-8 -20 -6 -30 -2 -38" fill="none" stroke="#fff" stroke-opacity=".3" stroke-width="2" stroke-linecap="round"/></g><radialGradient id="mn3-gl" cx="0.5" cy="0.5" r="0.5"><stop offset="0.00" stop-color="#9FB0FF55"/><stop offset="1.00" stop-color="#9FB0FF00"/></radialGradient><g id="mn3-ar"><ellipse cx="60" cy="116" rx="6" ry="17" transform="rotate(8 60 116)" fill="url(#mn3-b)"/></g><g id="mn3-pd"><path d="M44 86C40 74 52 70 62 74L64 82C56 82 50 88 48 96Z" fill="url(#mn3-w)" stroke="#9FB0FF" stroke-width="1.4"/><path d="M48 76L44 66 54 72Z" fill="url(#mn3-gd)"/></g><linearGradient id="mn3-m" x1="0" y1="0" x2="1" y2="1"><stop offset="0.00" stop-color="#FFFFFF"/><stop offset="0.50" stop-color="#B7C2D3"/><stop offset="1.00" stop-color="#6F7C90"/></linearGradient></defs><circle cx="80" cy="82" r="72" fill="url(#mn3-gl)"/><ellipse cx="80" cy="150" rx="38" ry="5" fill="#120a1e" opacity=".35"/><use href="#mn3-t" transform="translate(80 118) rotate(0) scale(1.60 1.6)" opacity="1"/><use href="#mn3-t" transform="translate(72 124) rotate(-62) scale(1.20 1.5)" opacity="1"/><use href="#mn3-t" transform="translate(88 124) rotate(62) scale(1.20 1.5)" opacity="1"/><ellipse cx="80" cy="112" rx="24" ry="29" fill="url(#mn3-b)"/><use href="#mn3-ar"/><use href="#mn3-ar" transform="translate(160 0) scale(-1 1)"/><ellipse cx="68" cy="144" rx="10" ry="5.5" fill="#262878"/><ellipse cx="92" cy="144" rx="10" ry="5.5" fill="#262878"/><ellipse cx="68" cy="146" rx="6" ry="2.6" fill="#fff"/><ellipse cx="92" cy="146" rx="6" ry="2.6" fill="#fff"/><path d="M62 94C62 88 98 88 98 94L94 124C90 134 70 134 66 124Z" fill="url(#mn3-w)" stroke="#9FB0FF" stroke-width="1.5"/><path d="M80 90V132" stroke="#9FB0FF" stroke-width="1.2" opacity=".6"/><path d="M2 -7A7 7 0 1 0 2 7A5.6 5.6 0 1 1 2 -7Z" transform="translate(80 112) scale(1.5)" fill="#FFF3B8" stroke="#ffffff" stroke-opacity=".6" stroke-width=".6"/><g transform="translate(80 60) scale(1)"><g><path d="M12 -22L36 -54L42 -12Z" fill="url(#mn3-b)"/><path d="M19 -25L34 -44L37 -20Z" fill="#DDE6FF"/></g><g transform="scale(-1 1)"><path d="M12 -22L36 -54L42 -12Z" fill="url(#mn3-b)"/><path d="M19 -25L34 -44L37 -20Z" fill="#DDE6FF"/></g><ellipse cx="0" cy="0" rx="37" ry="31" fill="url(#mn3-b)"/><g><path d="M28 4L46 6L36 14L44 22L26 24Z" fill="#fff"/></g><g transform="scale(-1 1)"><path d="M28 4L46 6L36 14L44 22L26 24Z" fill="#fff"/></g><path d="M-30 6Q-18 32 0 32Q18 32 30 6Q16 16 0 10Q-16 16 -30 6Z" fill="#fff"/><ellipse cx="0" cy="17" rx="14" ry="10" fill="#fff"/><ellipse cx="0" cy="9" rx="3.6" ry="2.6" fill="#2a1a4a"/><path d="M-4.5 13Q0 17.1 4.5 13" fill="none" stroke="#2a1a4a" stroke-width="1.6" stroke-linecap="round"/><ellipse cx="-17" cy="-1" rx="8.2" ry="9.2" fill="#1f1850"/><ellipse cx="-17" cy="1.0" rx="5.9" ry="6.1" fill="#6A8CFF" opacity=".85"/><circle cx="-19.5" cy="-4.1" r="3.1" fill="#fff"/><circle cx="-13.9" cy="2.3" r="1.4" fill="#fff"/><ellipse cx="17" cy="-1" rx="8.2" ry="9.2" fill="#1f1850"/><ellipse cx="17" cy="1.0" rx="5.9" ry="6.1" fill="#6A8CFF" opacity=".85"/><circle cx="14.5" cy="-4.1" r="3.1" fill="#fff"/><circle cx="20.1" cy="2.3" r="1.4" fill="#fff"/><ellipse cx="-27" cy="9" rx="5" ry="3" fill="#ff8aa0" opacity="0.5"/><ellipse cx="27" cy="9" rx="5" ry="3" fill="#ff8aa0" opacity="0.5"/><path d="M2 -7A7 7 0 1 0 2 7A5.6 5.6 0 1 1 2 -7Z" transform="translate(0 -19) scale(1.5)" fill="#FFE9A0" stroke="#ffffff" stroke-opacity=".6" stroke-width=".6"/><ellipse cx="-20" cy="-18" rx="9" ry="4" transform="rotate(-30 -20 -18)" fill="#fff" opacity="0.35"/></g><use href="#mn3-pd"/><use href="#mn3-pd" transform="translate(160 0) scale(-1 1)"/><circle cx="138" cy="22" r="12" fill="url(#mn3-m)" stroke="#ffffff99" stroke-width="1.2"/><circle cx="138" cy="22" r="9" fill="none" stroke="#00000033" stroke-width="1"/><path d="M134 17.8Q134 22 138.2 22Q134 22 134 26.2Q134 22 129.8 22Q134 22 134 17.8Z" fill="#fff" opacity="0.95"/><path d="M142 17.8Q142 22 146.2 22Q142 22 142 26.2Q142 22 137.8 22Q142 22 142 17.8Z" fill="#fff" opacity="0.95"/><path d="M22 47Q22 50 25 50Q22 50 22 53Q22 50 19 50Q22 50 22 47Z" fill="#fff" opacity="1"/><path d="M138 93Q138 96 141 96Q138 96 138 99Q138 96 135 96Q138 96 138 93Z" fill="#fff" opacity="1"/></svg>