<svg xmlns="http://www.w3.org/2000/svg" viewBox="0 0 160 160" width="160" height="160"><defs><linearGradient id="ow1-b" x1="0" y1="0" x2="1" y2="1"><stop offset="0.00" stop-color="#F4F7FC"/><stop offset="0.50" stop-color="#B8C4D6"/><stop offset="1.00" stop-color="#7E8CA6"/></linearGradient><linearGradient id="ow1-l" x1="0" y1="0" x2="0" y2="1"><stop offset="0.00" stop-color="#FFFFFF"/><stop offset="1.00" stop-color="#DCE4F0"/></linearGradient><linearGradient id="ow1-gd" x1="0" y1="0" x2="1" y2="1"><stop offset="0.00" stop-color="#FFF3A8"/><stop offset="0.50" stop-color="#F2B632"/><stop offset="1.00" stop-color="#B27A12"/></linearGradient><linearGradient id="ow1-fw" x1="0" y1="0" x2="1" y2="1"><stop offset="0.00" stop-color="#E6ECF6"/><stop offset="0.50" stop-color="#9EAAC2"/><stop offset="1.00" stop-color="#66738F"/></linearGradient><path id="ow1-f" d="M0 0C7 -6 9 -22 0 -42C-9 -22 -7 -6 0 0Z"/></defs><ellipse cx="80" cy="150" rx="36" ry="5" fill="#120a1e" opacity=".35"/><path d="M46 52L44 34 62 46Z M114 52L116 34 98 46Z" fill="url(#ow1-fw)"/><ellipse cx="38" cy="102" rx="10" ry="16" transform="rotate(14 38 102)" fill="url(#ow1-fw)"/><ellipse cx="122" cy="102" rx="10" ry="16" transform="rotate(-14 122 102)" fill="url(#ow1-fw)"/><path d="M58 140l2 5M66 140v6M74 140l-2 5" stroke="url(#ow1-gd)" stroke-width="3.2" stroke-linecap="round" fill="none"/><path d="M86 140l2 5M94 140v6M102 140l-2 5" stroke="url(#ow1-gd)" stroke-width="3.2" stroke-linecap="round" fill="none"/><ellipse cx="80" cy="92" rx="48" ry="47" fill="url(#ow1-b)"/><ellipse cx="80" cy="112" rx="26" ry="26" fill="url(#ow1-l)"/><path d="M63 100Q68 107 73 100" fill="none" stroke="#B27A12" stroke-width="1.4" stroke-linecap="round" opacity="0.55"/><path d="M75 100Q80 107 85 100" fill="none" stroke="#B27A12" stroke-width="1.4" stroke-linecap="round" opacity="0.55"/><path d="M87 100Q92 107 97 100" fill="none" stroke="#B27A12" stroke-width="1.4" stroke-linecap="round" opacity="0.55"/><path d="M57 110Q62 117 67 110" fill="none" stroke="#B27A12" stroke-width="1.4" stroke-linecap="round" opacity="0.55"/><path d="M69 110Q74 117 79 110" fill="none" stroke="#B27A12" stroke-width="1.4" stroke-linecap="round" opacity="0.55"/><path d="M81 110Q86 117 91 110" fill="none" stroke="#B27A12" stroke-width="1.4" stroke-linecap="round" opacity="0.55"/><path d="M93 110Q98 117 103 110" fill="none" stroke="#B27A12" stroke-width="1.4" stroke-linecap="round" opacity="0.55"/><path d="M63 120Q68 127 73 120" fill="none" stroke="#B27A12" stroke-width="1.4" stroke-linecap="round" opacity="0.55"/><path d="M75 120Q80 127 85 120" fill="none" stroke="#B27A12" stroke-width="1.4" stroke-linecap="round" opacity="0.55"/><path d="M87 120Q92 127 97 120" fill="none" stroke="#B27A12" stroke-width="1.4" stroke-linecap="round" opacity="0.55"/><path d="M69 130Q74 137 79 130" fill="none" stroke="#B27A12" stroke-width="1.4" stroke-linecap="round" opacity="0.55"/><path d="M81 130Q86 137 91 130" fill="none" stroke="#B27A12" stroke-width="1.4" stroke-linecap="round" opacity="0.55"/><path d="M80 50C60 56 44 66 50 84C58 96 102 96 110 84C116 66 100 56 80 50Z" fill="url(#ow1-l)" opacity=".85"/><circle cx="62" cy="80" r="17" fill="#F6F8FF"/><circle cx="62" cy="80.7" r="13.6" fill="#2a1a45"/><ellipse cx="62" cy="87.7" rx="8.5" ry="4.8" fill="#6A58B8" opacity=".55"/><circle cx="57.4" cy="75.8" r="5.1" fill="#fff"/><circle cx="66.8" cy="83.4" r="2.4" fill="#fff"/><circle cx="98" cy="80" r="17" fill="#F6F8FF"/><circle cx="98" cy="80.7" r="13.6" fill="#2a1a45"/><ellipse cx="98" cy="87.7" rx="8.5" ry="4.8" fill="#6A58B8" opacity=".55"/><circle cx="93.4" cy="75.8" r="5.1" fill="#fff"/><circle cx="102.8" cy="83.4" r="2.4" fill="#fff"/><path d="M75 94Q80 90 85 94Q82 102 80 103Q78 102 75 94Z" fill="url(#ow1-gd)"/><ellipse cx="46" cy="98" rx="6" ry="3.5" fill="#ff8aa0" opacity="0.5"/><ellipse cx="114" cy="98" rx="6" ry="3.5" fill="#ff8aa0" opacity="0.5"/><ellipse cx="56" cy="56" rx="12" ry="5" transform="rotate(-30 56 56)" fill="#fff" opacity="0.5"/><path d="M72 40L80 50 88 40" fill="none" stroke="url(#ow1-gd)" stroke-width="2.2" stroke-linecap="round" opacity=".0"/></svg>