<svg xmlns="http://www.w3.org/2000/svg" viewBox="0 0 160 160" width="160" height="160"><defs><linearGradient id="sp3-f" x1="0" y1="0" x2="1" y2="1"><stop offset="0.00" stop-color="#DDF2B0"/><stop offset="0.50" stop-color="#9ED070"/><stop offset="1.00" stop-color="#5BA650"/></linearGradient><linearGradient id="sp3-cr" x1="0" y1="0" x2="0" y2="1"><stop offset="0.00" stop-color="#FFFBE6"/><stop offset="1.00" stop-color="#F0DEA8"/></linearGradient><linearGradient id="sp3-lf" x1="0" y1="0" x2="1" y2="1"><stop offset="0.00" stop-color="#8EE070"/><stop offset="1.00" stop-color="#3FA656"/></linearGradient><linearGradient id="sp3-wd" x1="0" y1="0" x2="1" y2="1"><stop offset="0.00" stop-color="#C79A63"/><stop offset="1.00" stop-color="#7A5030"/></linearGradient><linearGradient id="sp3-gd" x1="0" y1="0" x2="1" y2="1"><stop offset="0.00" stop-color="#FFF3A8"/><stop offset="0.50" stop-color="#F2B632"/><stop offset="1.00" stop-color="#B27A12"/></linearGradient><path id="sp3-l" d="M0 0C-6 -5 -5 -14 0 -19C5 -14 6 -5 0 0Z"/><g id="sp3-w"><g fill="#FF9EC0"><ellipse cx="0" cy="-4" rx="2.8" ry="3.6" transform="rotate(0)"/><ellipse cx="0" cy="-4" rx="2.8" ry="3.6" transform="rotate(72)"/><ellipse cx="0" cy="-4" rx="2.8" ry="3.6" transform="rotate(144)"/><ellipse cx="0" cy="-4" rx="2.8" ry="3.6" transform="rotate(216)"/><ellipse cx="0" cy="-4" rx="2.8" ry="3.6" transform="rotate(288)"/></g><circle r="2" fill="#FFE27A"/></g><g id="sp3-an"><path d="M94 34C102 26 108 18 112 6M101 24C108 24 118 22 124 14M108 16C112 20 120 22 128 28M97 30C104 34 112 34 118 40" fill="none" stroke="#6E4528" stroke-width="4.8" stroke-linecap="round"/><path d="M94 34C102 26 108 18 112 6M101 24C108 24 118 22 124 14M108 16C112 20 120 22 128 28M97 30C104 34 112 34 118 40" fill="none" stroke="#C79A63" stroke-width="3.6" stroke-linecap="round"/><use href="#sp3-w" transform="translate(112 6) scale(1.1)"/><use href="#sp3-w" transform="translate(124 14) scale(1.1)"/><use href="#sp3-w" transform="translate(128 28) scale(1)"/><use href="#sp3-w" transform="translate(118 40) scale(0.9)"/><use href="#sp3-l" transform="translate(113 8) rotate(-10) scale(1)" fill="url(#sp3-lf)"/><use href="#sp3-l" transform="translate(125 16) rotate(40) scale(0.9)" fill="url(#sp3-lf)"/><use href="#sp3-l" transform="translate(129 30) rotate(80) scale(0.9)" fill="url(#sp3-lf)"/><use href="#sp3-l" transform="translate(104 16) rotate(-30) scale(0.8)" fill="url(#sp3-lf)"/></g><radialGradient id="sp3-gl" cx="0.5" cy="0.5" r="0.5"><stop offset="0.00" stop-color="#FFB6D044"/><stop offset="1.00" stop-color="#FFB6D000"/></radialGradient><g id="sp3-fl"><rect x="64" y="124" width="10" height="22" rx="5" fill="url(#sp3-f)"/><ellipse cx="69" cy="146" rx="7" ry="4" fill="#8B6A45"/></g><g id="sp3-pd"><path d="M50 84C48 74 58 70 68 74L70 80C62 80 56 86 54 94Z" fill="url(#sp3-lf)" stroke="#2E8B4A" stroke-width="1.3"/><path d="M46 96C42 88 48 82 58 84C58 90 54 96 50 100Z" fill="#8EE070" stroke="#2E8B4A" stroke-width="1.2"/></g><linearGradient id="sp3-m" x1="0" y1="0" x2="1" y2="1"><stop offset="0.00" stop-color="#FFFFFF"/><stop offset="0.50" stop-color="#B7C2D3"/><stop offset="1.00" stop-color="#6F7C90"/></linearGradient></defs><g transform="translate(8 16) scale(.9)"><circle cx="80" cy="82" r="72" fill="url(#sp3-gl)"/><ellipse cx="80" cy="150" rx="38" ry="5" fill="#120a1e" opacity=".35"/><use href="#sp3-fl"/><use href="#sp3-fl" transform="translate(160 0) scale(-1 1)"/><path d="M80 70C62 74 54 96 56 112C58 128 68 134 80 134C92 134 102 128 104 112C106 96 98 74 80 70Z" fill="url(#sp3-f)"/><circle cx="64" cy="112" r="3.2" fill="url(#sp3-cr)" opacity=".9"/><circle cx="98" cy="106" r="3.2" fill="url(#sp3-cr)" opacity=".9"/><circle cx="70" cy="126" r="2.6" fill="url(#sp3-cr)" opacity=".9"/><circle cx="94" cy="124" r="3" fill="url(#sp3-cr)" opacity=".9"/><path d="M80 74C68 80 66 96 70 110C74 120 86 120 90 110C94 96 92 80 80 74Z" fill="url(#sp3-cr)"/><use href="#sp3-an"/><use href="#sp3-an" transform="translate(160 0) scale(-1 1)"/><g transform="translate(55 46) rotate(64)"><ellipse cx="0" cy="0" rx="8" ry="15" fill="url(#sp3-f)"/><ellipse cx="0" cy="1" rx="4.5" ry="10" fill="url(#sp3-cr)"/></g><g transform="translate(105 46) rotate(-64)"><ellipse cx="0" cy="0" rx="8" ry="15" fill="url(#sp3-f)"/><ellipse cx="0" cy="1" rx="4.5" ry="10" fill="url(#sp3-cr)"/></g><ellipse cx="80" cy="52" rx="26" ry="24" fill="url(#sp3-f)"/><ellipse cx="80" cy="63" rx="12" ry="9" fill="url(#sp3-cr)"/><ellipse cx="80" cy="59" rx="4" ry="3" fill="#5a3a2a"/><path d="M76.4 65Q80 68.2 83.6 65" fill="none" stroke="#4a1f2a" stroke-width="1.8" stroke-linecap="round"/><ellipse cx="68" cy="50" rx="6.8" ry="7.6" fill="#2a1a3a"/><circle cx="66.0" cy="47.4" r="2.6" fill="#fff"/><circle cx="70.6" cy="52.7" r="1.2" fill="#fff"/><ellipse cx="92" cy="50" rx="6.8" ry="7.6" fill="#2a1a3a"/><circle cx="90.0" cy="47.4" r="2.6" fill="#fff"/><circle cx="94.6" cy="52.7" r="1.2" fill="#fff"/><path d="M60 42L73 46M100 42L87 46" stroke="#3a6a38" stroke-width="2.2" stroke-linecap="round"/><ellipse cx="58" cy="62" rx="5" ry="3" fill="#ff8aa0" opacity="0.5"/><ellipse cx="102" cy="62" rx="5" ry="3" fill="#ff8aa0" opacity="0.5"/><ellipse cx="66" cy="38" rx="7" ry="3.5" transform="rotate(-30 66 38)" fill="#fff" opacity="0.45"/><use href="#sp3-pd"/><use href="#sp3-pd" transform="translate(160 0) scale(-1 1)"/><path d="M62 80Q80 92 98 80" fill="none" stroke="#3FA656" stroke-width="5" stroke-linecap="round"/><use href="#sp3-w" transform="translate(80 92) scale(1.5)"/><use href="#sp3-w" transform="translate(66 100) scale(0.9)"/><use href="#sp3-w" transform="translate(94 102) scale(0.9)"/><path d="M26 57Q26 60 29 60Q26 60 26 63Q26 60 23 60Q26 60 26 57Z" fill="#FFD6E4" opacity="1"/><path d="M136 67Q136 70 139 70Q136 70 136 73Q136 70 133 70Q136 70 136 67Z" fill="#FFD6E4" opacity="1"/></g><circle cx="138" cy="22" r="12" fill="url(#sp3-m)" stroke="#ffffff99" stroke-width="1.2"/><circle cx="138" cy="22" r="9" fill="none" stroke="#00000033" stroke-width="1"/><path d="M134 17.8Q134 22 138.2 22Q134 22 134 26.2Q134 22 129.8 22Q134 22 134 17.8Z" fill="#fff" opacity="0.95"/><path d="M142 17.8Q142 22 146.2 22Q142 22 142 26.2Q142 22 137.8 22Q142 22 142 17.8Z" fill="#fff" opacity="0.95"/></svg>