<svg xmlns="http://www.w3.org/2000/svg" viewBox="0 0 160 160" width="160" height="160"><defs><linearGradient id="sp4-f" x1="0" y1="0" x2="1" y2="1"><stop offset="0.00" stop-color="#DDF2B0"/><stop offset="0.50" stop-color="#9ED070"/><stop offset="1.00" stop-color="#5BA650"/></linearGradient><linearGradient id="sp4-cr" x1="0" y1="0" x2="0" y2="1"><stop offset="0.00" stop-color="#FFFBE6"/><stop offset="1.00" stop-color="#F0DEA8"/></linearGradient><linearGradient id="sp4-lf" x1="0" y1="0" x2="1" y2="1"><stop offset="0.00" stop-color="#8EE070"/><stop offset="1.00" stop-color="#3FA656"/></linearGradient><linearGradient id="sp4-wd" x1="0" y1="0" x2="1" y2="1"><stop offset="0.00" stop-color="#C79A63"/><stop offset="1.00" stop-color="#7A5030"/></linearGradient><linearGradient id="sp4-gd" x1="0" y1="0" x2="1" y2="1"><stop offset="0.00" stop-color="#FFF3A8"/><stop offset="0.50" stop-color="#F2B632"/><stop offset="1.00" stop-color="#B27A12"/></linearGradient><path id="sp4-l" d="M0 0C-6 -5 -5 -14 0 -19C5 -14 6 -5 0 0Z"/><g id="sp4-w"><g fill="#FF9EC0"><ellipse cx="0" cy="-4" rx="2.8" ry="3.6" transform="rotate(0)"/><ellipse cx="0" cy="-4" rx="2.8" ry="3.6" transform="rotate(72)"/><ellipse cx="0" cy="-4" rx="2.8" ry="3.6" transform="rotate(144)"/><ellipse cx="0" cy="-4" rx="2.8" ry="3.6" transform="rotate(216)"/><ellipse cx="0" cy="-4" rx="2.8" ry="3.6" transform="rotate(288)"/></g><circle r="2" fill="#FFE27A"/></g><g id="sp4-an"><path d="M94 62C98 50 96 38 90 24M97 48C106 46 114 40 122 30M110 42C120 44 128 40 136 32M96 36C102 28 110 22 118 14" fill="none" stroke="#6E4528" stroke-width="5.0" stroke-linecap="round"/><path d="M94 62C98 50 96 38 90 24M97 48C106 46 114 40 122 30M110 42C120 44 128 40 136 32M96 36C102 28 110 22 118 14" fill="none" stroke="#C79A63" stroke-width="3.8" stroke-linecap="round"/><use href="#sp4-l" transform="translate(90 24) rotate(-10) scale(1.2)" fill="url(#sp4-lf)"/><use href="#sp4-l" transform="translate(122 30) rotate(40) scale(1.2)" fill="url(#sp4-lf)"/><use href="#sp4-l" transform="translate(136 32) rotate(70) scale(1.1)" fill="url(#sp4-lf)"/><use href="#sp4-l" transform="translate(118 14) rotate(20) scale(1.2)" fill="url(#sp4-lf)"/><use href="#sp4-l" transform="translate(110 36) rotate(-40) scale(1)" fill="url(#sp4-lf)"/></g><radialGradient id="sp4-au" cx="0.5" cy="0.5" r="0.5"><stop offset="0.00" stop-color="#E8E08A99"/><stop offset="1.00" stop-color="#E8E08A00"/></radialGradient><path id="sp4-tk" d="M80 10l2 3-2 3-2-3z" fill="#E8E08A"/><g id="sp4-fl"><rect x="64" y="126" width="10" height="20" rx="5" fill="url(#sp4-f)"/><ellipse cx="69" cy="146" rx="7" ry="4" fill="url(#sp4-gd)"/></g><g id="sp4-pd"><path d="M56 94C54 86 62 82 70 86L72 92C66 92 60 96 58 104Z" fill="url(#sp4-gd)" stroke="#B27A12" stroke-width="1.2"/></g><linearGradient id="sp4-m" x1="0" y1="0" x2="1" y2="1"><stop offset="0.00" stop-color="#FFF3A8"/><stop offset="0.50" stop-color="#F2B632"/><stop offset="1.00" stop-color="#B27A12"/></linearGradient></defs><g transform="translate(10 18) scale(.88)"><circle cx="80" cy="80" r="78" fill="url(#sp4-au)"/><circle cx="80" cy="80" r="70" fill="none" stroke="#E8E08A" stroke-width="1.3" stroke-dasharray="2 3.2" opacity=".85"/><circle cx="80" cy="80" r="64" fill="none" stroke="#E8E08A" stroke-width=".9" opacity=".6"/><use href="#sp4-tk" transform="rotate(0 80 80)"/><use href="#sp4-tk" transform="rotate(30 80 80)"/><use href="#sp4-tk" transform="rotate(60 80 80)"/><use href="#sp4-tk" transform="rotate(90 80 80)"/><use href="#sp4-tk" transform="rotate(120 80 80)"/><use href="#sp4-tk" transform="rotate(150 80 80)"/><use href="#sp4-tk" transform="rotate(180 80 80)"/><use href="#sp4-tk" transform="rotate(210 80 80)"/><use href="#sp4-tk" transform="rotate(240 80 80)"/><use href="#sp4-tk" transform="rotate(270 80 80)"/><use href="#sp4-tk" transform="rotate(300 80 80)"/><use href="#sp4-tk" transform="rotate(330 80 80)"/><ellipse cx="80" cy="150" rx="34" ry="5" fill="#120a1e" opacity=".35"/><g opacity=".9"><circle cx="52" cy="30" r="17" fill="#2E8B4A"/><circle cx="108" cy="30" r="17" fill="#2E8B4A"/><circle cx="80" cy="20" r="19" fill="#3FA656"/><circle cx="66" cy="38" r="14" fill="#58C264"/><circle cx="94" cy="38" r="14" fill="#58C264"/></g><use href="#sp4-fl"/><use href="#sp4-fl" transform="translate(160 0) scale(-1 1)"/><path d="M80 86C64 90 58 106 60 118C62 132 70 138 80 138C90 138 98 132 100 118C102 106 96 90 80 86Z" fill="url(#sp4-f)"/><path d="M80 90C70 96 70 108 74 118C78 126 82 126 86 118C90 108 90 96 80 90Z" fill="url(#sp4-cr)"/><path d="M62 100Q80 112 98 100M64 116Q80 128 96 116" fill="none" stroke="url(#sp4-gd)" stroke-width="2" stroke-linecap="round"/><use href="#sp4-an"/><use href="#sp4-an" transform="translate(160 0) scale(-1 1)"/><g transform="translate(58 66) rotate(66)"><ellipse cx="0" cy="0" rx="8" ry="15" fill="url(#sp4-f)"/><ellipse cx="0" cy="1" rx="4.5" ry="10" fill="url(#sp4-cr)"/></g><g transform="translate(102 66) rotate(-66)"><ellipse cx="0" cy="0" rx="8" ry="15" fill="url(#sp4-f)"/><ellipse cx="0" cy="1" rx="4.5" ry="10" fill="url(#sp4-cr)"/></g><ellipse cx="80" cy="68" rx="25" ry="23" fill="url(#sp4-f)"/><path d="M62 52L64 40 72 48 80 36 88 48 96 40 98 52Q80 56 62 52Z" fill="url(#sp4-gd)" stroke="#B27A12" stroke-width="1.2"/><ellipse cx="80" cy="79" rx="11.5" ry="8.5" fill="url(#sp4-cr)"/><ellipse cx="80" cy="75" rx="3.8" ry="2.8" fill="#5a3a2a"/><path d="M76.5 81Q80 84.2 83.5 81" fill="none" stroke="#4a1f2a" stroke-width="1.8" stroke-linecap="round"/><ellipse cx="69" cy="67" rx="6.6" ry="7.4" fill="#2a1a3a"/><circle cx="67.0" cy="64.5" r="2.5" fill="#fff"/><circle cx="71.5" cy="69.6" r="1.1" fill="#fff"/><ellipse cx="91" cy="67" rx="6.6" ry="7.4" fill="#2a1a3a"/><circle cx="89.0" cy="64.5" r="2.5" fill="#fff"/><circle cx="93.5" cy="69.6" r="1.1" fill="#fff"/><ellipse cx="60" cy="77" rx="4.5" ry="3" fill="#ff8aa0" opacity="0.5"/><ellipse cx="100" cy="77" rx="4.5" ry="3" fill="#ff8aa0" opacity="0.5"/><use href="#sp4-pd"/><use href="#sp4-pd" transform="translate(160 0) scale(-1 1)"/><circle cx="22" cy="24" r="2.2" fill="#FFF08A"/><circle cx="22" cy="24" r="5" fill="#FFF08A" opacity=".3"/><circle cx="140" cy="20" r="2.2" fill="#FFF08A"/><circle cx="140" cy="20" r="5" fill="#FFF08A" opacity=".3"/><circle cx="30" cy="72" r="2.2" fill="#FFF08A"/><circle cx="30" cy="72" r="5" fill="#FFF08A" opacity=".3"/><circle cx="130" cy="76" r="2.2" fill="#FFF08A"/><circle cx="130" cy="76" r="5" fill="#FFF08A" opacity=".3"/><circle cx="12" cy="56" r="2.2" fill="#FFF08A"/><circle cx="12" cy="56" r="5" fill="#FFF08A" opacity=".3"/><circle cx="150" cy="50" r="2.2" fill="#FFF08A"/><circle cx="150" cy="50" r="5" fill="#FFF08A" opacity=".3"/><path d="M30 107Q30 110 33 110Q30 110 30 113Q30 110 27 110Q30 110 30 107Z" fill="#FFF3A8" opacity="1"/></g><circle cx="138" cy="22" r="12" fill="url(#sp4-m)" stroke="#ffffff99" stroke-width="1.2"/><circle cx="138" cy="22" r="9" fill="none" stroke="#00000033" stroke-width="1"/><path d="M138 15Q138 22 145 22Q138 22 138 29Q138 22 131 22Q138 22 138 15Z" fill="#fff" opacity="0.95"/></svg>