<svg xmlns="http://www.w3.org/2000/svg" viewBox="0 0 160 160" width="160" height="160"><defs><linearGradient id="wv3-b" x1="0" y1="0" x2="1" y2="1"><stop offset="0.00" stop-color="#58B4F0"/><stop offset="0.50" stop-color="#2A74C4"/><stop offset="1.00" stop-color="#1B4A94"/></linearGradient><linearGradient id="wv3-t" x1="0" y1="0" x2="1" y2="1"><stop offset="0.00" stop-color="#7FE6D8"/><stop offset="0.50" stop-color="#2FB5B5"/><stop offset="1.00" stop-color="#1F7F9A"/></linearGradient><linearGradient id="wv3-bl" x1="0" y1="0" x2="0" y2="1"><stop offset="0.00" stop-color="#FFFFFF"/><stop offset="1.00" stop-color="#BFE7F5"/></linearGradient><radialGradient id="wv3-pr" cx="0.35" cy="0.3" r="0.8"><stop offset="0.00" stop-color="#FFFFFF"/><stop offset="0.50" stop-color="#F3E6FF"/><stop offset="1.00" stop-color="#B9C8F5"/></radialGradient><linearGradient id="wv3-gd" x1="0" y1="0" x2="1" y2="1"><stop offset="0.00" stop-color="#FFF3A8"/><stop offset="0.50" stop-color="#F2B632"/><stop offset="1.00" stop-color="#B27A12"/></linearGradient><radialGradient id="wv3-gl" cx="0.5" cy="0.5" r="0.5"><stop offset="0.00" stop-color="#7FE6D855"/><stop offset="1.00" stop-color="#7FE6D800"/></radialGradient><clipPath id="wv3-bc"><path d="M16 94C16 66 40 52 68 54C92 56 110 68 124 84C128 90 126 96 120 98C100 120 74 128 52 124C30 120 16 110 16 94Z"/></clipPath><linearGradient id="wv3-m" x1="0" y1="0" x2="1" y2="1"><stop offset="0.00" stop-color="#FFFFFF"/><stop offset="0.50" stop-color="#B7C2D3"/><stop offset="1.00" stop-color="#6F7C90"/></linearGradient></defs><circle cx="80" cy="82" r="72" fill="url(#wv3-gl)"/><ellipse cx="80" cy="150" rx="40" ry="5" fill="#120a1e" opacity=".35"/><g transform="rotate(-12 80 90) translate(0 6)"><path d="M96 66C96 44 106 34 118 30C118 42 118 56 120 70Z" fill="url(#wv3-t)"/><path d="M118 90C130 88 136 80 134 68" fill="none" stroke="#2A74C4" stroke-width="9" stroke-linecap="round"/><path d="M134 68C124 68 116 60 116 50C124 52 130 56 134 60C138 56 144 52 152 50C152 60 144 68 134 68Z" fill="url(#wv3-t)"/><path d="M16 94C16 66 40 52 68 54C92 56 110 68 124 84C128 90 126 96 120 98C100 120 74 128 52 124C30 120 16 110 16 94Z" fill="url(#wv3-b)"/><g clip-path="url(#wv3-bc)"><ellipse cx="60" cy="124" rx="62" ry="22" fill="url(#wv3-bl)"/><path d="M26 108Q60 118 96 112M30 116Q60 124 86 120" stroke="#8FBFE0" stroke-width="1.4" fill="none" opacity=".7"/></g><ellipse cx="52" cy="62" rx="16" ry="4.5" transform="rotate(-12 52 62)" fill="#fff" opacity="0.45"/><path d="M80 90C70 110 66 132 52 144C86 146 106 126 112 98Z" fill="url(#wv3-t)"/><path d="M82 96C76 112 72 128 62 140" fill="none" stroke="#E6FFFB" stroke-width="2" opacity=".7"/><circle cx="60" cy="52" r="5" fill="url(#wv3-pr)"/><circle cx="76" cy="52" r="5.5" fill="url(#wv3-pr)"/><circle cx="92" cy="57" r="5.5" fill="url(#wv3-pr)"/><circle cx="106" cy="66" r="5" fill="url(#wv3-pr)"/><circle cx="116" cy="78" r="4.5" fill="url(#wv3-pr)"/><path d="M22 84C24 64 44 54 62 56C58 66 48 74 42 90Z" fill="url(#wv3-bl)" stroke="#9AD6F2" stroke-width="1.5"/><path d="M34 80C38 70 46 64 54 60M42 88C46 78 52 72 58 66" fill="none" stroke="#9AD6F2" stroke-width="1.3"/><path d="M44 52C40 38 46 30 54 28C54 38 56 46 60 54Z" fill="url(#wv3-t)"/><circle cx="50" cy="48" r="4.5" fill="url(#wv3-pr)" stroke="url(#wv3-gd)" stroke-width="1.2"/><ellipse cx="32" cy="92" rx="9.5" ry="10.6" fill="#2a1a3a"/><circle cx="29.1" cy="88.4" r="3.6" fill="#fff"/><circle cx="35.6" cy="95.8" r="1.6" fill="#fff"/><path d="M48 100c0-3 4-4 6-1c2 3-1 7-5 6c-5-1-6-8-1-10" fill="none" stroke="#9AF2E6" stroke-width="1.8" stroke-linecap="round" transform="translate(48 100) scale(1.1) translate(-48 -100)"/><path d="M15 108Q20 112.5 25 108" fill="none" stroke="#4a1f2a" stroke-width="1.8" stroke-linecap="round"/><ellipse cx="30" cy="104" rx="5" ry="3" fill="#ff8aa0" opacity="0.5"/></g><circle cx="14" cy="62" r="3" fill="none" stroke="#BFEAFF" stroke-width="1.2"/><circle cx="20" cy="50" r="2" fill="none" stroke="#BFEAFF" stroke-width="1.2"/><circle cx="138" cy="22" r="12" fill="url(#wv3-m)" stroke="#ffffff99" stroke-width="1.2"/><circle cx="138" cy="22" r="9" fill="none" stroke="#00000033" stroke-width="1"/><path d="M134 17.8Q134 22 138.2 22Q134 22 134 26.2Q134 22 129.8 22Q134 22 134 17.8Z" fill="#fff" opacity="0.95"/><path d="M142 17.8Q142 22 146.2 22Q142 22 142 26.2Q142 22 137.8 22Q142 22 142 17.8Z" fill="#fff" opacity="0.95"/></svg>